<?xml version="1.0" encoding="utf-8"?>
<!-- Generator: Adobe Illustrator 26.0.1, SVG Export Plug-In . SVG Version: 6.00 Build 0)  -->
<svg version="1.1" id="レイヤー_1" xmlns="http://www.w3.org/2000/svg" xmlns:xlink="http://www.w3.org/1999/xlink" x="0px"
	 y="0px" viewBox="0 0 2740.222656 546.407349" style="enable-background:new 0 0 2740.222656 546.407349;" xml:space="preserve">
<style type="text/css">
	.st0{fill:#209CFF;}
	.st1{fill:#494949;}
</style>
<g>
	<path class="st0" d="M465.786133,240.262787L66.662109,6.437595C52.982422-1.5751,36.932617-2.133694,22.634766,4.906345
		C8.25,11.975681,0,24.545994,0,39.394627V507.04306c0,14.84671,8.25,27.418976,22.634766,34.494171
		c6.540039,3.212891,13.618164,4.870117,20.697266,4.870117c1.405273,0,2.811523-0.06543,4.211914-0.197266
		c6.730469-0.628906,13.163086-2.716797,19.118164-6.206055l188.15332-110.235382l2.209961-1.293945l-48.369141-28.333008
		L58.541016,488.087982l-0.114258,0.056641c-0.930664,0.490234-1.980469,0.75-3.036133,0.75
		c-3.342773,0-6.119141-2.484375-6.486328-5.790039V63.337986c0.368164-3.308594,3.143555-5.794922,6.486328-5.794922
		c1.055664,0,2.105469,0.259766,3.086914,0.775391l357.277344,209.313477c1.884766,1.098633,2.96875,3.033203,2.974609,5.307617
		c0.006836,2.532227-1.323242,4.892578-3.46582,6.157227l-123.211914,72.1875l-42.438477-24.860352l67.287109-39.424805
		l0.236328-0.142578c4.764648-3.004883,7.49707-7.975586,7.49707-13.636719s-2.728516-10.628906-7.512695-13.646484
		L115.742188,141.602631c-5.041016-2.796875-10.808594-2.75293-15.824219,0.124023
		c-5.057617,2.904297-8.013672,7.90625-8.108398,13.74707v263.394531l48.904297-28.644531V212.895599l102.963867,60.324219
		l-90.8125,53.204102l138.428711,81.089844l0.757812,0.444336l173.734375-101.78125
		c12.754883-7.472656,19.779297-19.176758,19.779297-32.957031C485.56543,259.442474,478.541016,247.738373,465.786133,240.262787z"
		/>
	<path class="st1" d="M626.811157,131.133057c0-8.178856,6.630249-14.809128,14.809143-14.809128h125.280212
		c39.512695,0,70.493652,11.673828,90.699219,31.430664c16.613281,17.0625,26.041992,40.410156,26.041992,67.799805v0.897461
		c0,51.635727-30.980957,82.617172-74.534668,95.189438l71.981384,100.926422
		c5.393982,7.563049-0.012634,18.059906-9.302185,18.059906h-34.351746c-5.655945,0-10.95874-2.749847-14.217468-7.372681
		l-72.03186-102.184937h-69.146484v94.382477c0,8.381012-6.794128,15.17514-15.175171,15.17514h-24.877197
		c-8.381042,0-15.175171-6.794128-15.175171-15.17514V131.133057z M762.859497,272.128601
		c39.512695,0,64.656738-20.654282,64.656738-52.533188v-0.898438c0-33.674805-24.246094-52.083984-65.105957-52.083984h-80.371582
		v105.51561H762.859497z"/>
	<path class="st1" d="M905.314209,312.987976v-0.897461c0-67.799789,48.043945-123.476547,115.84375-123.476547
		c75.432617,0,113.598145,59.268555,113.598145,127.517563c0,0.288971-0.001587,0.577942-0.004517,0.867004
		c-0.082397,7.980713-6.602417,14.398621-14.583496,14.398621H959.643799
		c5.837402,38.615234,33.226562,60.166992,68.249023,60.166992c22.162231,0,38.982422-6.91333,54.929321-19.951569
		c5.594238-4.573853,13.674805-4.434387,19.079834,0.361603l10.804077,9.5867
		c6.444824,5.718536,6.61792,15.734711,0.368164,21.66571c-21.308228,20.221375-49.182373,32.788727-86.079346,32.788727
		C958.297119,436.01532,905.314209,386.176453,905.314209,312.987976z M1080.875244,295.477234
		c-3.591797-35.022461-24.246094-62.412094-60.166504-62.412094c-33.226562,0-56.574707,25.593735-61.513672,62.412094H1080.875244z
		"/>
	<path class="st1" d="M1161.710083,193.553421h27.409546c6.896606,0,13.059082,4.306931,15.429443,10.783371l59.812256,163.430481
		l60.246094-163.465485c2.380249-6.458237,8.533691-10.748367,15.416504-10.748367h26.124023
		c9.290527,0,15.624512,9.407928,12.129517,18.015991l-84.674561,208.550522
		c-3.02002,7.438049-10.246826,12.303589-18.274536,12.303589h-22.406372c-8.016235,0-15.234985-4.851685-18.262573-12.274109
		l-85.070923-208.56044C1146.076294,202.978195,1152.410522,193.553421,1161.710083,193.553421z"/>
	<path class="st1" d="M1400.932373,274.373718v-0.897461c0-89.352524,66.901855-162.540024,161.64209-162.540024
		c50.837158,0,83.963989,15.326225,111.541992,38.266525c6.761108,5.624146,7.549805,15.725113,1.784424,22.366226
		l-15.093384,17.38623c-5.498413,6.333618-15.038086,7.277359-21.590088,2.041046
		c-22.224976-17.762268-46.063477-28.873505-77.092163-28.873505c-59.268555,0-103.270996,48.941406-103.270996,110.455063v0.898438
		c0,61.513672,43.553223,111.352539,103.720215,111.352539c33.42041,0,56.414429-11.435181,79.461548-30.813202
		c6.257446-5.26123,15.517456-4.808105,21.261841,1.008911l13.923584,14.099823
		c6.274414,6.353729,5.974121,16.625763-0.599731,22.669098c-29.828613,27.421387-63.910645,44.221893-115.843628,44.221893
		C1468.732178,436.01532,1400.932373,364.623718,1400.932373,274.373718z"/>
	<path class="st1" d="M1698.052979,313.437195v-0.897461c0-67.799789,53.880859-123.925766,126.619629-123.925766
		s126.17041,55.227539,126.17041,123.027328v0.898438c0,67.350586-53.880371,123.475586-127.068359,123.475586
		C1751.484619,436.01532,1698.052979,380.787781,1698.052979,313.437195z M1896.513428,313.437195v-0.897461
		c0-41.757812-30.083496-76.331039-72.73877-76.331039c-43.553711,0-71.39209,34.124008-71.39209,75.432602v0.898438
		c0,41.307617,30.083496,75.881836,72.290039,75.881836C1868.675049,388.42157,1896.513428,354.29657,1896.513428,313.437195z"/>
	<path class="st1" d="M2258.046387,188.632553c-35.920898,0-61.06543,16.613281-79.922852,41.757812
		c-11.687744-23.375244-33.469727-39.368896-63.893311-41.505127c-3.519531-0.436279-7.096436-0.687256-10.734131-0.687256
		c-27.963867,0-52.810791,13.293701-68.605957,33.893066v-13.539551c0-8.272949-6.706543-14.979492-14.979492-14.979492h-24.819458
		c-8.272949,0-14.97937,6.706543-14.97937,14.979492v207.115494c0,8.272949,6.706421,14.979248,14.97937,14.979248h24.819458
		c8.272949,0,14.979492-6.706299,14.979492-14.979248V296.842529c0-36.369141,20.654297-58.819351,50.738281-58.819351
		c30.083008,0,48.042969,20.654312,48.042969,57.472672v120.171143c0,8.272949,6.706543,14.979248,14.979248,14.979248h24.371338
		c8.272949,0,14.979492-6.706299,14.979492-14.979248V296.842529c0-38.165039,21.103516-58.819351,50.737305-58.819351
		c30.532227,0,48.043945,20.205093,48.043945,57.92189v119.721924c0,8.272949,6.706543,14.979248,14.979248,14.979248h24.370361
		c8.272949,0,14.979492-6.706299,14.979492-14.979248V279.331787
		C2341.111816,221.409897,2309.682129,188.632553,2258.046387,188.632553z"/>
	<path class="st1" d="M2657.157227,188.632553c-35.920898,0-61.06543,16.613281-79.922852,41.757812
		c-11.6875-23.375244-33.469727-39.368896-63.893066-41.505127c-3.519531-0.436279-7.09668-0.687256-10.734375-0.687256
		c-27.963623,0-52.810791,13.293701-68.605957,33.893066v-13.539551c0-8.272949-6.706543-14.979492-14.979248-14.979492h-24.81958
		c-8.272949,0-14.979492,6.706543-14.979492,14.979492v207.115494c0,8.272949,6.706543,14.979248,14.979492,14.979248h24.81958
		c8.272705,0,14.979248-6.706299,14.979248-14.979248V296.842529c0-36.369141,20.654297-58.819351,50.738281-58.819351
		c30.083008,0,48.042969,20.654312,48.042969,57.472672v120.171143c0,8.272949,6.706543,14.979248,14.979492,14.979248h24.371338
		c8.272705,0,14.979248-6.706299,14.979248-14.979248V296.842529c0-38.165039,21.103516-58.819351,50.737305-58.819351
		c30.532227,0,48.043945,20.205093,48.043945,57.92189v119.721924c0,8.272949,6.706543,14.979248,14.979492,14.979248h24.370361
		c8.272705,0,14.979248-6.706299,14.979248-14.979248V279.331787
		C2740.222656,221.409897,2708.792969,188.632553,2657.157227,188.632553z"/>
</g>
</svg>
