<svg id="svg" version="1.1" xmlns="http://www.w3.org/2000/svg" xmlns:xlink="http://www.w3.org/1999/xlink" width="400" height="350" viewBox="0, 0, 400,350"><g id="svgg"><path id="path0" d="M322.592 117.426 C 322.592 117.474,322.552 141.235,322.504 170.228 L 322.417 222.942 321.672 224.518 C 320.026 228.002,319.279 228.200,309.632 227.710 C 302.364 227.341,302.853 227.287,303.265 228.410 C 303.433 228.870,303.854 231.075,304.199 233.309 L 304.825 237.371 311.169 237.580 C 322.888 237.966,325.907 236.879,328.561 231.318 C 330.221 227.840,330.307 226.005,330.290 194.659 C 330.281 178.717,330.398 165.710,330.549 165.755 C 330.700 165.799,331.102 166.942,331.442 168.294 C 333.145 175.057,336.781 186.593,338.176 189.655 C 338.442 190.240,339.076 191.743,339.585 192.995 C 340.795 195.977,345.851 206.095,346.410 206.655 C 346.506 206.751,347.522 208.249,348.668 209.982 C 351.442 214.181,353.884 217.228,357.289 220.738 L 360.107 223.643 360.685 222.813 C 361.192 222.083,363.786 218.828,366.358 215.691 C 367.195 214.671,367.199 214.634,366.533 214.278 C 366.157 214.078,364.194 212.240,362.172 210.194 C 358.584 206.565,357.540 205.403,355.982 203.302 C 355.563 202.738,354.571 201.410,353.777 200.350 C 349.615 194.797,344.374 184.885,340.782 175.771 L 340.087 174.009 345.293 168.703 C 348.157 165.785,351.589 162.235,352.920 160.813 C 354.252 159.392,355.674 157.895,356.080 157.486 C 356.486 157.077,357.724 155.718,358.831 154.466 C 359.939 153.214,361.564 151.443,362.443 150.531 L 364.041 148.873 362.143 146.852 C 361.099 145.740,359.634 144.138,358.887 143.293 L 357.529 141.756 356.376 143.120 C 355.741 143.870,353.953 146.074,352.402 148.019 C 349.355 151.838,347.241 154.282,342.738 159.194 C 341.148 160.928,339.419 162.859,338.895 163.485 C 338.370 164.111,337.731 164.623,337.475 164.623 C 336.601 164.623,334.233 155.746,331.869 143.608 C 330.469 136.421,330.310 134.630,330.304 126.007 L 330.298 117.338 326.445 117.338 C 324.326 117.338,322.592 117.377,322.592 117.426 M204.553 169.878 C 204.553 226.510,204.691 222.790,202.501 225.285 C 200.570 227.484,196.627 227.798,185.490 226.638 C 183.578 226.439,181.983 226.314,181.946 226.360 C 181.882 226.442,182.449 230.138,183.303 235.197 L 183.717 237.644 185.641 237.923 C 188.386 238.320,202.342 238.044,204.047 237.559 C 209.182 236.098,212.446 232.119,213.308 226.270 C 213.581 224.417,213.664 208.101,213.590 170.928 L 213.485 118.214 209.019 118.116 L 204.553 118.018 204.553 169.878 M271.421 123.157 C 271.150 123.484,269.864 124.601,268.564 125.639 C 266.052 127.643,265.784 128.270,266.852 129.638 C 267.211 130.097,267.843 131.103,268.258 131.874 C 268.672 132.644,269.640 134.378,270.409 135.727 C 271.178 137.075,272.000 138.573,272.236 139.054 C 272.472 139.536,272.747 140.009,272.848 140.105 C 273.066 140.315,278.160 150.222,279.645 153.327 C 280.221 154.532,280.833 155.517,281.003 155.517 C 281.330 155.517,284.775 152.923,286.012 151.746 C 286.409 151.367,287.079 150.873,287.500 150.648 C 288.493 150.117,288.461 149.775,287.207 147.461 C 286.633 146.401,285.970 145.140,285.733 144.658 C 285.497 144.177,285.214 143.704,285.106 143.608 C 284.934 143.455,281.908 138.066,279.993 134.501 C 279.631 133.827,279.237 133.197,279.117 133.100 C 278.997 133.004,278.474 132.137,277.955 131.173 C 274.086 123.997,272.420 121.953,271.421 123.157 M179.410 146.659 C 179.205 147.196,178.461 149.527,177.756 151.839 C 175.609 158.872,175.073 160.566,174.762 161.296 C 174.598 161.681,174.314 162.548,174.131 163.222 C 173.948 163.897,172.902 166.970,171.807 170.053 C 170.711 173.135,169.666 176.161,169.484 176.777 C 169.302 177.394,168.924 178.339,168.642 178.879 C 168.361 179.418,168.129 180.052,168.128 180.286 C 168.127 180.520,167.894 181.229,167.611 181.862 C 167.327 182.495,166.294 185.061,165.314 187.566 C 164.335 190.070,163.213 192.828,162.821 193.695 C 162.429 194.562,161.976 195.587,161.813 195.972 C 160.382 199.367,157.106 206.548,156.868 206.813 C 156.168 207.588,157.034 208.513,160.157 210.327 C 160.494 210.523,161.640 211.296,162.706 212.046 C 163.771 212.795,164.699 213.347,164.768 213.271 C 164.837 213.196,165.787 211.007,166.878 208.406 C 167.970 205.806,169.008 203.363,169.184 202.977 C 169.361 202.592,170.236 200.464,171.129 198.249 C 172.551 194.721,173.237 192.950,175.340 187.391 C 176.265 184.943,177.607 181.204,178.483 178.634 C 178.975 177.189,179.516 175.692,179.684 175.306 C 179.852 174.921,180.647 172.557,181.451 170.053 C 182.254 167.548,183.041 165.184,183.199 164.799 C 183.357 164.413,184.058 162.207,184.757 159.895 C 185.456 157.583,186.245 155.061,186.511 154.291 C 186.777 153.520,187.145 152.338,187.329 151.664 C 187.514 150.989,187.776 150.166,187.912 149.834 C 188.168 149.207,186.224 148.130,181.963 146.538 C 181.001 146.179,180.116 145.839,179.997 145.784 C 179.878 145.728,179.614 146.122,179.410 146.659 M232.292 146.768 C 231.655 147.111,230.068 148.063,228.764 148.885 L 226.393 150.378 228.389 154.962 C 229.487 157.482,231.060 161.200,231.884 163.222 C 232.708 165.245,233.673 167.561,234.029 168.370 C 234.385 169.178,234.681 169.966,234.688 170.121 C 234.694 170.276,235.004 171.033,235.377 171.804 C 235.749 172.574,236.059 173.339,236.065 173.502 C 236.072 173.666,236.307 174.296,236.587 174.903 C 236.868 175.510,238.212 178.923,239.573 182.487 C 240.935 186.051,242.199 189.282,242.381 189.667 C 242.780 190.509,243.687 193.053,244.191 194.746 C 244.392 195.420,244.673 196.130,244.816 196.322 C 244.959 196.515,245.749 198.564,246.572 200.876 C 247.395 203.187,248.432 206.025,248.876 207.180 C 249.321 208.336,249.793 209.717,249.925 210.248 C 250.277 211.664,250.538 211.685,252.781 210.476 C 254.421 209.591,259.478 206.723,259.797 206.497 C 259.840 206.467,259.425 205.347,258.875 204.009 C 258.325 202.671,257.143 199.764,256.247 197.548 C 255.352 195.333,254.474 193.205,254.296 192.820 C 254.118 192.434,253.233 190.306,252.330 188.091 C 250.657 183.987,246.202 173.358,245.356 171.454 C 245.100 170.876,243.912 168.117,242.716 165.324 C 241.521 162.531,240.075 159.221,239.504 157.968 C 238.932 156.716,238.106 154.904,237.667 153.940 C 237.227 152.977,236.422 151.165,235.877 149.912 C 234.765 147.355,234.003 146.039,233.673 146.102 C 233.550 146.126,232.929 146.426,232.292 146.768 M292.707 149.791 C 292.576 149.922,292.469 151.816,292.469 153.999 L 292.469 157.968 300.712 157.968 C 310.356 157.968,309.580 157.528,308.944 162.647 C 307.882 171.201,304.971 182.677,302.269 188.967 C 302.103 189.352,301.464 190.849,300.849 192.294 C 299.646 195.118,296.801 200.645,295.360 202.957 C 293.344 206.192,290.596 210.158,290.371 210.158 C 290.239 210.158,289.967 210.512,289.767 210.946 C 289.338 211.876,285.696 216.308,283.479 218.596 L 281.921 220.205 283.080 221.403 C 283.717 222.062,285.103 223.585,286.159 224.786 C 287.216 225.987,288.240 226.968,288.436 226.966 C 289.489 226.953,296.806 217.531,301.080 210.683 C 303.409 206.952,307.134 199.365,308.991 194.571 C 313.824 182.095,317.565 163.498,317.270 153.415 L 317.163 149.737 305.054 149.645 C 298.394 149.595,292.838 149.660,292.707 149.791 M278.825 182.224 C 276.119 193.339,274.776 198.325,271.488 209.457 C 269.188 217.247,267.418 222.886,266.925 223.993 C 266.533 224.877,265.513 227.936,265.254 229.007 C 265.048 229.862,265.546 230.359,267.856 231.607 C 268.478 231.943,269.712 232.771,270.598 233.447 C 272.722 235.068,273.410 235.050,273.712 233.363 C 273.842 232.640,274.093 231.576,274.269 230.998 C 274.575 230.000,275.723 225.779,276.936 221.191 C 277.507 219.029,278.099 216.896,278.975 213.835 C 279.700 211.300,280.345 209.009,282.324 201.926 C 283.293 198.459,284.391 194.597,284.764 193.345 C 285.137 192.093,286.163 188.660,287.043 185.716 C 288.872 179.600,288.954 180.124,285.885 178.303 C 284.594 177.537,283.004 176.431,282.352 175.845 C 281.700 175.260,281.047 174.781,280.902 174.781 C 280.756 174.781,279.822 178.130,278.825 182.224 " stroke="none" fill="#0a0a0a" fill-rule="evenodd"></path><path id="path1" d="M95.972 66.405 C 82.137 68.951,70.726 79.133,64.994 94.046 C 64.475 95.394,63.837 97.049,63.574 97.723 C 60.967 104.421,59.326 114.805,58.482 129.947 C 58.120 136.446,57.668 140.613,56.030 152.539 C 54.552 163.307,54.333 164.851,53.971 167.075 C 53.767 168.327,53.440 172.898,53.245 177.233 C 52.616 191.207,52.110 197.144,50.111 214.011 C 49.563 218.633,49.328 228.080,49.668 231.863 C 50.136 237.081,51.820 238.362,60.245 239.913 C 62.268 240.286,67.075 241.166,70.928 241.870 C 78.717 243.292,79.560 243.537,80.873 244.759 L 81.786 245.609 81.733 251.789 C 81.704 255.188,81.429 260.333,81.122 263.222 C 78.164 291.064,79.845 297.606,90.066 298.016 C 96.948 298.293,101.674 293.865,103.461 285.464 C 104.351 281.279,106.130 257.081,106.130 249.154 C 106.130 248.734,106.554 247.886,107.073 247.269 L 108.016 246.148 111.714 246.386 C 113.748 246.517,117.067 246.960,119.089 247.370 C 123.954 248.356,132.348 248.463,134.011 247.560 C 137.591 245.618,140.046 238.949,141.847 226.270 C 141.998 225.210,142.293 223.161,142.504 221.716 C 142.867 219.228,143.345 215.496,144.480 206.305 C 144.754 204.089,145.222 200.385,145.520 198.074 C 145.819 195.762,146.701 188.590,147.482 182.137 C 148.262 175.683,149.588 165.517,150.428 159.545 C 153.296 139.151,153.240 139.701,153.237 131.699 C 153.231 117.640,150.887 113.253,143.192 112.899 C 128.106 112.205,119.197 100.571,117.021 78.719 C 116.412 72.611,113.914 68.943,109.184 67.215 C 107.392 66.560,98.195 65.996,95.972 66.405 " stroke="none" fill="#fa0573" fill-rule="evenodd"></path><path id="path2" d="M0.000 175.131 L 0.000 350.263 200.000 350.263 L 400.000 350.263 400.000 175.131 L 400.000 0.000 200.000 0.000 L 0.000 0.000 0.000 175.131 M106.910 66.407 C 114.219 67.669,117.193 71.843,117.868 81.786 C 118.374 89.242,120.505 95.607,124.553 101.757 C 126.503 104.720,129.671 107.958,131.708 109.070 C 136.996 111.957,137.394 112.087,141.558 112.290 C 147.661 112.587,150.101 113.972,151.971 118.198 C 153.686 122.075,154.467 133.424,153.490 140.280 C 153.271 141.821,152.850 144.974,152.555 147.285 C 152.260 149.597,151.473 155.350,150.806 160.070 C 150.139 164.790,149.266 171.331,148.867 174.606 C 148.467 177.881,147.907 182.373,147.622 184.588 C 147.337 186.804,146.317 195.079,145.357 202.977 C 141.142 237.633,139.292 245.223,134.406 247.893 C 132.896 248.718,123.059 248.717,119.089 247.892 C 117.644 247.591,114.556 247.237,112.225 247.105 L 107.988 246.864 107.272 247.774 C 106.628 248.593,106.533 249.372,106.321 255.603 C 106.191 259.408,105.938 264.413,105.758 266.725 C 105.577 269.037,105.267 273.371,105.069 276.357 C 104.064 291.460,99.545 298.529,90.896 298.529 C 85.495 298.529,81.860 296.407,80.368 292.384 C 79.467 289.957,79.478 273.471,80.385 265.978 C 81.004 260.861,81.588 247.627,81.255 246.258 C 80.925 244.899,79.502 244.126,75.974 243.389 C 74.162 243.010,71.655 242.467,70.403 242.182 C 69.151 241.897,66.313 241.427,64.098 241.138 C 56.721 240.177,51.541 238.254,50.116 235.948 C 48.821 233.852,48.787 217.522,50.064 210.508 C 50.975 205.501,52.002 193.155,52.700 178.809 C 52.971 173.222,53.352 167.785,53.545 166.725 C 53.738 165.665,54.081 163.459,54.307 161.821 C 54.533 160.184,54.938 157.268,55.208 155.342 C 55.477 153.415,56.018 149.321,56.408 146.244 C 56.799 143.167,57.189 140.330,57.275 139.939 C 57.361 139.549,57.669 135.447,57.959 130.823 C 58.854 116.573,59.173 113.815,60.796 106.305 C 62.255 99.551,66.179 88.676,67.558 87.566 C 67.678 87.469,68.090 86.760,68.475 85.989 C 70.318 82.295,76.417 75.068,78.676 73.902 C 79.231 73.616,79.764 73.288,79.860 73.175 C 80.288 72.670,83.807 70.421,84.510 70.202 C 84.938 70.069,85.725 69.653,86.259 69.277 C 87.472 68.423,90.849 67.086,92.669 66.740 C 93.426 66.596,94.436 66.406,94.913 66.318 C 95.391 66.229,95.850 66.088,95.935 66.003 C 96.317 65.622,103.995 65.904,106.910 66.407 M330.654 125.694 C 330.661 134.775,330.598 134.182,332.925 146.915 C 333.240 148.638,334.131 152.499,334.906 155.496 C 335.680 158.493,336.464 161.563,336.648 162.316 C 337.257 164.815,337.261 164.813,341.856 159.656 C 344.264 156.954,346.479 154.483,346.777 154.166 C 347.075 153.849,348.336 152.347,349.579 150.827 C 350.822 149.308,352.846 146.865,354.078 145.398 C 355.309 143.932,356.489 142.456,356.701 142.119 C 357.304 141.159,357.642 141.349,360.070 144.009 C 361.322 145.381,362.780 146.903,363.310 147.390 C 364.560 148.541,364.524 149.057,363.101 150.391 C 362.456 150.995,361.099 152.434,360.085 153.590 C 357.588 156.436,351.852 162.541,345.673 168.930 L 340.559 174.219 341.853 177.390 C 344.333 183.469,348.200 191.277,349.953 193.749 C 350.316 194.261,350.613 194.771,350.613 194.884 C 350.613 195.103,353.386 199.217,354.528 200.693 C 354.904 201.179,356.003 202.601,356.971 203.853 C 359.004 206.483,365.752 213.481,366.551 213.787 C 367.669 214.216,367.539 215.093,366.138 216.576 C 365.377 217.380,364.371 218.629,363.901 219.350 C 363.431 220.071,362.952 220.662,362.835 220.663 C 362.719 220.664,362.175 221.375,361.627 222.242 C 361.079 223.109,360.434 223.818,360.194 223.818 C 358.975 223.818,351.892 215.624,348.236 209.982 C 347.237 208.441,346.253 206.983,346.049 206.741 C 345.448 206.028,339.984 195.106,339.085 192.820 C 338.630 191.664,338.050 190.245,337.796 189.667 C 336.395 186.479,332.137 173.206,331.110 168.827 C 330.949 168.139,330.744 180.828,330.643 197.723 C 330.445 230.909,330.634 227.953,328.408 232.627 C 327.809 233.885,325.332 236.232,323.668 237.117 C 322.200 237.898,317.747 238.193,311.017 237.956 L 304.521 237.727 303.724 232.962 C 303.286 230.341,302.845 227.904,302.742 227.547 C 302.572 226.953,302.715 226.918,304.431 227.138 C 305.461 227.270,309.029 227.451,312.358 227.540 C 319.306 227.726,319.701 227.601,321.113 224.774 L 321.891 223.216 321.891 170.113 L 321.891 117.011 325.832 116.912 C 327.999 116.857,329.969 116.869,330.210 116.938 C 330.545 117.033,330.649 119.094,330.654 125.694 M213.835 172.504 C 213.835 225.137,213.811 227.216,213.175 229.072 C 211.429 234.161,208.502 236.800,203.056 238.196 C 200.817 238.770,184.061 238.490,183.435 237.868 C 183.202 237.638,182.831 235.998,182.610 234.224 C 182.389 232.450,182.031 229.906,181.815 228.571 C 181.327 225.561,181.416 225.476,184.613 225.898 C 197.690 227.625,200.845 227.288,203.156 223.917 L 204.028 222.643 204.117 170.604 C 204.167 141.982,204.282 118.362,204.373 118.116 C 204.499 117.776,205.661 117.691,209.187 117.766 L 213.835 117.863 213.835 172.504 M273.738 123.382 C 274.128 124.007,274.634 124.834,274.862 125.219 C 275.090 125.604,275.979 127.102,276.838 128.546 C 279.262 132.626,279.778 133.509,280.726 135.201 C 281.212 136.068,282.243 137.881,283.018 139.229 C 283.792 140.578,284.617 142.075,284.850 142.557 C 285.084 143.039,285.375 143.511,285.498 143.608 C 285.621 143.704,286.026 144.413,286.398 145.184 C 286.771 145.954,287.504 147.313,288.028 148.204 L 288.980 149.822 285.383 152.750 C 283.405 154.360,281.734 155.799,281.670 155.947 C 281.339 156.711,280.602 155.977,279.566 153.853 C 278.932 152.553,278.281 151.252,278.120 150.963 C 277.958 150.674,277.141 149.099,276.304 147.464 C 273.216 141.432,267.411 130.976,265.741 128.438 C 265.333 127.818,265.746 127.287,267.778 125.823 C 267.972 125.683,268.974 124.820,270.005 123.905 C 272.217 121.942,272.790 121.862,273.738 123.382 M181.720 146.021 C 182.664 146.577,183.971 147.148,184.625 147.289 C 186.086 147.605,188.441 148.768,188.441 149.174 C 188.441 149.338,188.048 150.714,187.567 152.232 C 187.086 153.750,186.454 155.779,186.164 156.743 C 185.874 157.706,184.849 160.899,183.887 163.838 C 182.924 166.777,182.136 169.378,182.134 169.617 C 182.133 169.857,181.912 170.475,181.642 170.992 C 181.372 171.509,181.040 172.455,180.903 173.094 C 180.767 173.733,180.532 174.413,180.381 174.606 C 180.231 174.799,179.942 175.508,179.739 176.182 C 179.195 177.990,178.316 180.425,175.191 188.792 C 171.594 198.418,171.179 199.450,170.850 199.591 C 170.700 199.656,170.578 199.942,170.578 200.227 C 170.578 200.513,169.497 203.297,168.176 206.415 C 166.855 209.533,165.676 212.363,165.557 212.705 C 165.173 213.804,164.375 213.739,162.641 212.465 C 161.709 211.780,159.961 210.632,158.756 209.913 C 156.467 208.547,155.955 207.825,156.526 206.764 C 157.212 205.490,160.420 198.521,160.422 198.301 C 160.424 198.176,160.664 197.614,160.957 197.052 C 161.493 196.026,163.272 191.724,165.317 186.515 C 165.922 184.974,166.644 183.195,166.921 182.563 C 167.199 181.930,167.427 181.221,167.428 180.986 C 167.429 180.752,167.660 180.119,167.942 179.579 C 168.223 179.040,168.604 178.094,168.788 177.478 C 168.972 176.862,169.699 174.781,170.402 172.855 C 171.967 168.570,174.898 159.769,176.875 153.415 C 179.281 145.686,179.522 145.009,179.865 145.009 C 179.942 145.009,180.776 145.464,181.720 146.021 M235.201 147.656 C 237.012 151.596,237.789 153.299,238.704 155.342 C 239.222 156.497,240.009 158.231,240.451 159.194 C 240.894 160.158,242.230 163.231,243.420 166.025 C 244.610 168.818,245.799 171.576,246.063 172.154 C 247.603 175.535,247.986 176.427,247.986 176.633 C 247.986 176.760,248.370 177.695,248.840 178.712 C 249.310 179.729,250.105 181.585,250.607 182.837 C 251.109 184.089,251.666 185.429,251.845 185.814 C 252.956 188.214,257.093 198.715,257.093 199.138 C 257.093 199.419,257.233 199.650,257.405 199.650 C 257.577 199.650,257.825 200.078,257.956 200.601 C 258.087 201.124,258.499 202.219,258.870 203.033 C 259.241 203.848,259.545 204.729,259.545 204.990 C 259.545 205.251,259.727 205.647,259.950 205.870 C 260.430 206.349,259.770 207.356,258.976 207.356 C 258.711 207.356,258.494 207.486,258.494 207.646 C 258.494 207.806,257.194 208.617,255.604 209.449 C 254.015 210.281,252.269 211.273,251.724 211.654 C 251.163 212.045,250.604 212.213,250.434 212.040 C 250.186 211.787,245.231 198.717,243.745 194.396 C 243.513 193.722,243.121 192.697,242.874 192.119 C 242.626 191.541,242.078 190.123,241.656 188.967 C 241.233 187.811,240.759 186.550,240.602 186.165 C 240.445 185.779,239.434 183.179,238.354 180.385 C 237.274 177.592,236.184 174.834,235.932 174.256 C 235.679 173.678,235.114 172.259,234.675 171.103 C 234.236 169.947,233.675 168.529,233.427 167.951 C 233.179 167.373,232.401 165.482,231.699 163.748 C 230.367 160.462,229.743 158.980,228.824 156.918 C 226.485 151.675,225.908 150.136,226.205 149.938 C 228.733 148.253,230.118 147.468,230.911 147.272 C 231.440 147.141,231.874 146.894,231.874 146.722 C 231.874 146.550,232.091 146.410,232.356 146.410 C 232.622 146.410,233.034 146.175,233.272 145.888 C 233.871 145.166,234.191 145.459,235.201 147.656 M317.508 154.991 C 317.500 163.967,315.736 174.564,312.408 185.639 C 312.032 186.891,311.726 188.160,311.729 188.459 C 311.732 188.757,311.597 189.151,311.430 189.335 C 311.263 189.518,310.724 190.849,310.232 192.294 C 309.741 193.739,309.090 195.394,308.787 195.972 C 308.484 196.550,308.235 197.186,308.233 197.385 C 308.232 197.585,307.443 199.346,306.480 201.298 C 305.517 203.251,304.729 204.927,304.729 205.023 C 304.729 205.779,296.742 218.306,295.214 219.946 C 294.804 220.386,293.944 221.433,293.303 222.273 C 292.663 223.112,291.858 224.090,291.516 224.446 C 291.173 224.803,290.377 225.674,289.746 226.383 C 288.239 228.075,288.380 228.133,285.417 224.606 C 284.001 222.920,282.566 221.286,282.227 220.975 C 281.337 220.156,281.430 219.904,283.275 218.141 C 284.190 217.267,285.727 215.568,286.690 214.365 C 287.653 213.161,288.849 211.683,289.348 211.080 C 292.178 207.654,298.890 196.505,299.683 193.913 C 299.808 193.504,300.031 193.012,300.179 192.820 C 300.326 192.627,300.870 191.366,301.387 190.018 C 301.904 188.669,302.470 187.250,302.645 186.865 C 304.744 182.247,308.963 163.749,308.937 159.282 L 308.932 158.319 300.525 158.319 L 292.119 158.319 292.119 153.999 C 292.119 151.623,292.226 149.572,292.357 149.441 C 292.488 149.310,298.201 149.245,305.054 149.295 L 317.513 149.387 317.508 154.991 M281.786 174.863 C 283.718 176.451,287.370 178.984,287.728 178.984 C 289.288 178.984,289.112 180.569,286.694 188.266 C 286.452 189.037,286.005 190.534,285.701 191.594 C 285.397 192.653,284.825 194.611,284.430 195.943 C 284.036 197.276,283.713 198.646,283.713 198.988 C 283.713 199.329,283.573 199.695,283.402 199.800 C 283.231 199.906,282.984 200.585,282.852 201.310 C 282.720 202.034,282.389 203.336,282.115 204.203 C 281.842 205.070,281.291 206.961,280.892 208.406 C 280.492 209.851,279.962 211.743,279.714 212.609 C 279.466 213.476,278.986 215.210,278.647 216.462 C 278.309 217.715,277.813 219.527,277.545 220.490 C 277.278 221.454,276.424 224.606,275.648 227.496 C 273.189 236.654,273.691 235.988,270.708 234.038 C 263.917 229.598,264.202 229.883,264.940 228.288 C 265.569 226.927,266.459 224.467,266.938 222.767 C 267.128 222.093,267.422 221.226,267.591 220.841 C 268.116 219.648,271.095 209.794,273.098 202.627 C 274.755 196.699,274.361 198.236,277.764 184.413 C 280.519 173.223,280.332 173.667,281.786 174.863 " stroke="none" fill="#fbfbfb" fill-rule="evenodd"></path><path id="path3" d="M322.135 117.211 C 322.001 117.345,321.912 141.347,321.938 170.549 C 321.964 199.750,322.109 222.855,322.260 221.891 C 322.411 220.928,322.543 197.049,322.554 168.827 L 322.572 117.513 326.435 117.414 L 330.298 117.315 330.300 125.996 C 330.301 134.032,331.070 142.395,331.881 143.206 C 332.184 143.509,332.058 142.425,331.480 139.755 C 331.070 137.863,330.850 134.333,330.692 127.145 L 330.473 117.163 326.426 117.065 C 324.200 117.011,322.270 117.077,322.135 117.211 M204.372 118.116 C 204.280 118.362,204.165 141.970,204.116 170.578 C 204.068 199.186,203.907 222.907,203.760 223.292 C 203.613 223.678,203.724 223.520,204.007 222.942 C 204.453 222.033,204.524 214.917,204.538 169.955 L 204.553 118.018 209.019 118.116 L 213.485 118.214 213.485 171.804 C 213.485 201.278,213.369 226.182,213.227 227.145 C 213.001 228.674,213.023 228.785,213.402 228.021 C 213.741 227.336,213.835 215.226,213.835 172.504 L 213.835 117.863 209.187 117.766 C 205.661 117.691,204.499 117.776,204.372 118.116 M270.024 124.081 C 268.949 125.092,268.397 125.688,268.798 125.406 C 269.199 125.123,270.122 124.339,270.849 123.663 C 272.062 122.534,272.234 122.473,272.950 122.919 C 273.663 123.363,273.689 123.355,273.250 122.823 C 272.520 121.941,272.144 122.087,270.024 124.081 M274.278 124.956 C 274.714 125.679,275.452 126.940,275.919 127.758 C 276.915 129.505,277.337 129.760,276.498 128.109 C 275.751 126.639,273.832 123.643,273.637 123.643 C 273.554 123.643,273.842 124.234,274.278 124.956 M266.412 126.967 C 265.632 127.690,265.535 127.959,265.847 128.543 C 266.332 129.449,266.536 129.443,266.297 128.530 C 266.177 128.070,266.399 127.503,266.916 126.953 C 267.966 125.836,267.622 125.845,266.412 126.967 M277.424 129.824 C 277.415 130.045,277.800 130.912,278.279 131.751 C 278.759 132.589,279.146 133.117,279.139 132.925 C 279.122 132.396,277.442 129.360,277.424 129.824 M266.959 130.218 C 267.315 131.042,270.124 135.902,270.245 135.902 C 270.456 135.902,269.633 134.059,269.150 133.450 C 268.921 133.161,268.396 132.255,267.985 131.436 C 267.378 130.230,266.528 129.220,266.959 130.218 M279.521 133.646 C 279.515 133.850,279.741 134.323,280.024 134.697 C 280.307 135.071,280.543 135.210,280.549 135.006 C 280.555 134.802,280.329 134.329,280.046 133.955 C 279.763 133.581,279.527 133.442,279.521 133.646 M283.265 140.431 C 284.185 142.152,284.987 143.425,285.047 143.260 C 285.152 142.966,281.999 137.303,281.729 137.303 C 281.653 137.303,282.344 138.711,283.265 140.431 M271.465 138.199 C 271.459 138.403,271.685 138.876,271.968 139.250 C 272.251 139.624,272.487 139.763,272.493 139.559 C 272.499 139.355,272.273 138.882,271.990 138.508 C 271.707 138.134,271.471 137.995,271.465 138.199 M274.144 143.232 C 275.068 144.952,275.878 146.305,275.943 146.240 C 276.137 146.047,273.054 140.152,272.746 140.128 C 272.590 140.115,273.219 141.512,274.144 143.232 M356.772 142.081 C 356.591 142.552,356.644 142.579,357.063 142.231 C 357.484 141.882,357.812 142.075,358.910 143.318 C 359.644 144.150,361.098 145.739,362.141 146.850 L 364.037 148.870 363.192 149.829 L 362.347 150.788 363.310 149.939 C 364.514 148.878,364.513 148.866,363.135 147.394 C 362.509 146.725,361.017 145.127,359.819 143.842 C 357.524 141.380,357.129 141.151,356.772 142.081 M285.464 144.221 C 285.464 144.388,285.693 144.831,285.972 145.205 C 286.462 145.860,286.473 145.856,286.280 145.091 C 286.081 144.300,285.464 143.643,285.464 144.221 M332.301 145.527 C 332.412 146.487,332.624 147.669,332.771 148.154 L 333.040 149.037 333.036 148.161 C 333.034 147.680,332.822 146.497,332.565 145.534 L 332.098 143.783 332.301 145.527 M354.229 145.271 C 353.694 145.994,352.807 147.058,352.257 147.636 C 351.708 148.214,351.001 149.120,350.685 149.650 C 350.370 150.180,350.002 150.613,349.867 150.613 C 349.733 150.613,349.144 151.263,348.560 152.059 C 347.975 152.854,345.558 155.651,343.188 158.276 C 340.818 160.900,338.662 163.363,338.398 163.748 C 337.884 164.496,338.191 164.172,342.870 159.041 C 347.478 153.988,348.534 152.783,351.179 149.562 C 354.261 145.810,355.656 143.958,355.401 143.958 C 355.292 143.958,354.764 144.549,354.229 145.271 M179.151 146.086 C 179.024 146.486,178.999 146.892,179.095 146.988 C 179.192 147.084,179.378 146.825,179.509 146.411 C 179.641 145.997,179.931 145.735,180.154 145.827 C 180.378 145.920,181.151 146.249,181.874 146.558 C 182.596 146.867,183.187 147.046,183.187 146.956 C 183.187 146.766,180.083 145.359,179.664 145.359 C 179.509 145.359,179.278 145.686,179.151 146.086 M232.574 146.454 L 231.699 147.193 232.716 146.583 C 233.710 145.987,233.746 145.991,234.383 146.804 L 235.034 147.636 234.728 146.760 C 234.332 145.628,233.665 145.533,232.574 146.454 M184.258 147.247 C 184.830 147.820,188.338 149.351,188.189 148.963 C 188.094 148.714,187.960 148.511,187.891 148.511 C 187.823 148.511,186.933 148.183,185.915 147.782 C 184.896 147.380,184.151 147.140,184.258 147.247 M229.597 147.921 C 225.654 150.114,225.639 150.129,226.464 151.159 C 226.998 151.826,227.002 151.825,226.669 151.129 C 226.368 150.502,226.612 150.240,228.751 148.893 C 230.083 148.053,231.173 147.309,231.173 147.238 C 231.173 147.050,231.126 147.071,229.597 147.921 M178.523 148.047 C 178.111 149.559,177.932 150.613,178.088 150.613 C 178.334 150.613,179.060 147.770,178.864 147.574 C 178.773 147.483,178.619 147.696,178.523 148.047 M235.039 148.004 C 235.046 148.187,235.289 148.730,235.579 149.212 L 236.106 150.088 235.877 149.212 C 235.638 148.298,235.016 147.402,235.039 148.004 M287.770 148.336 C 287.913 148.722,288.044 149.376,288.061 149.791 C 288.077 150.206,288.209 150.473,288.354 150.384 C 288.798 150.109,288.646 149.032,288.062 148.316 C 287.516 147.645,287.512 147.646,287.770 148.336 M277.058 148.646 C 277.058 149.021,278.100 150.963,278.302 150.963 C 278.398 150.963,278.216 150.451,277.898 149.825 C 277.248 148.546,277.058 148.280,277.058 148.646 M292.539 149.632 C 292.308 149.863,292.119 150.209,292.119 150.400 C 292.119 150.591,292.316 150.478,292.557 150.149 C 292.957 149.603,294.029 149.560,305.079 149.645 L 317.163 149.737 317.146 155.692 C 317.136 158.967,317.236 161.173,317.367 160.595 C 317.903 158.234,317.724 149.651,317.134 149.425 C 316.009 148.993,292.984 149.187,292.539 149.632 M333.138 149.493 C 333.079 150.195,334.241 155.038,334.373 154.641 C 334.437 154.448,334.194 153.109,333.833 151.664 C 333.472 150.219,333.160 149.242,333.138 149.493 M187.391 151.313 C 187.173 152.123,187.063 152.854,187.147 152.938 C 187.230 153.021,187.469 152.420,187.677 151.600 C 187.885 150.781,187.995 150.050,187.921 149.976 C 187.847 149.902,187.609 150.504,187.391 151.313 M236.372 150.963 C 237.145 152.963,238.165 155.166,238.317 155.166 C 238.552 155.166,236.781 150.855,236.375 150.438 C 236.153 150.210,236.152 150.394,236.372 150.963 M286.307 151.513 C 281.839 155.462,280.825 155.951,280.206 154.455 C 279.964 153.871,279.696 153.462,279.612 153.546 C 279.487 153.671,280.384 155.734,280.745 156.153 C 280.873 156.301,286.625 151.850,287.198 151.159 C 287.886 150.331,287.447 150.505,286.307 151.513 M360.868 152.112 C 360.247 152.925,358.252 155.166,356.435 157.093 C 354.617 159.019,353.174 160.641,353.227 160.696 C 353.466 160.943,362.172 151.399,362.172 150.889 C 362.172 150.447,362.059 150.553,360.868 152.112 M278.459 151.576 C 278.459 151.743,278.687 152.186,278.967 152.560 C 279.457 153.216,279.468 153.212,279.275 152.446 C 279.076 151.656,278.459 150.998,278.459 151.576 M176.915 153.447 C 176.678 154.237,176.548 154.949,176.627 155.028 C 176.706 155.106,176.964 154.524,177.201 153.733 C 177.438 152.943,177.567 152.232,177.488 152.153 C 177.410 152.074,177.151 152.656,176.915 153.447 M227.161 152.802 C 227.292 153.236,227.543 153.744,227.720 153.932 C 227.896 154.121,227.863 153.766,227.646 153.144 C 227.202 151.872,226.793 151.583,227.161 152.802 M292.219 154.291 C 292.222 155.254,292.290 155.606,292.370 155.074 C 292.451 154.542,292.449 153.753,292.366 153.323 C 292.283 152.892,292.217 153.327,292.219 154.291 M185.824 156.451 C 185.314 158.153,184.591 160.452,184.217 161.560 C 183.578 163.457,183.355 164.573,183.683 164.244 C 183.969 163.956,187.060 153.669,186.907 153.515 C 186.820 153.429,186.333 154.750,185.824 156.451 M228.239 155.136 C 228.358 155.601,228.909 156.941,229.463 158.114 C 230.018 159.286,230.374 159.865,230.255 159.400 C 230.136 158.935,229.585 157.595,229.030 156.422 C 228.476 155.250,228.119 154.671,228.239 155.136 M334.543 155.517 C 334.526 155.806,334.735 156.751,335.008 157.618 C 335.281 158.485,335.503 158.879,335.501 158.494 C 335.497 157.623,334.586 154.794,334.543 155.517 M175.867 156.778 C 175.391 158.501,175.637 158.746,176.182 157.093 C 176.413 156.393,176.519 155.737,176.418 155.635 C 176.316 155.534,176.068 156.048,175.867 156.778 M238.729 156.217 C 238.855 156.699,239.098 157.243,239.269 157.426 C 239.769 157.961,239.615 157.193,239.027 156.217 L 238.500 155.342 238.729 156.217 M292.237 157.268 L 292.294 158.144 300.594 158.237 L 308.894 158.331 309.036 159.989 L 309.178 161.646 309.143 159.895 L 309.107 158.144 300.812 158.050 C 292.548 157.956,292.516 157.953,292.348 157.174 C 292.202 156.496,292.187 156.509,292.237 157.268 M239.989 159.037 C 240.194 159.625,240.426 160.041,240.506 159.961 C 240.679 159.788,240.018 157.968,239.782 157.968 C 239.691 157.968,239.784 158.449,239.989 159.037 M174.815 160.122 C 174.351 161.454,174.333 161.718,174.736 161.278 C 175.071 160.913,175.584 159.019,175.347 159.019 C 175.266 159.019,175.027 159.516,174.815 160.122 M335.772 160.408 C 335.892 161.075,336.207 162.178,336.471 162.860 L 336.951 164.098 336.732 162.885 C 336.612 162.217,336.298 161.114,336.034 160.433 L 335.554 159.194 335.772 160.408 M230.583 160.771 C 231.000 162.113,232.011 164.483,232.302 164.799 C 232.676 165.205,231.298 161.586,230.772 160.784 C 230.474 160.328,230.445 160.325,230.583 160.771 M240.993 161.313 C 241.000 161.496,241.243 162.040,241.533 162.522 L 242.061 163.398 241.832 162.522 C 241.593 161.608,240.971 160.712,240.993 161.313 M349.472 164.446 C 347.788 166.246,346.415 167.850,346.421 168.010 C 346.427 168.170,346.663 167.996,346.945 167.624 C 347.227 167.251,348.663 165.711,350.137 164.201 C 351.610 162.691,352.752 161.392,352.675 161.315 C 352.597 161.237,351.156 162.646,349.472 164.446 M308.663 162.872 C 308.663 163.546,308.735 163.822,308.823 163.485 C 308.911 163.148,308.911 162.596,308.823 162.259 C 308.735 161.922,308.663 162.198,308.663 162.872 M316.346 165.465 C 315.610 170.947,315.569 171.583,316.092 169.352 C 316.596 167.201,317.183 162.172,316.929 162.172 C 316.851 162.172,316.589 163.654,316.346 165.465 M172.896 165.891 C 172.395 167.381,172.041 168.655,172.109 168.723 C 172.176 168.790,172.658 167.644,173.180 166.175 C 173.701 164.706,174.056 163.431,173.968 163.343 C 173.879 163.255,173.397 164.401,172.896 165.891 M242.075 163.767 C 242.556 165.119,244.263 168.813,244.362 168.715 C 244.541 168.535,242.729 164.154,242.307 163.748 C 242.064 163.514,241.987 163.520,242.075 163.767 M307.893 167.001 C 307.644 168.598,307.517 169.980,307.610 170.074 C 307.854 170.318,308.697 165.146,308.506 164.576 C 308.418 164.313,308.142 165.404,307.893 167.001 M183.089 164.863 C 182.802 165.348,182.420 167.426,182.618 167.426 C 182.849 167.426,183.568 164.887,183.388 164.707 C 183.316 164.636,183.181 164.706,183.089 164.863 M232.789 166.025 C 233.002 166.874,233.769 168.787,234.616 170.578 L 235.030 171.454 234.811 170.578 C 234.599 169.728,233.832 167.816,232.985 166.025 L 232.571 165.149 232.789 166.025 M330.300 165.517 C 330.301 165.700,330.261 179.746,330.212 196.731 C 330.163 213.716,330.201 227.534,330.298 227.438 C 330.394 227.341,330.552 213.760,330.648 197.256 C 330.800 171.155,330.884 167.516,331.292 169.292 C 331.549 170.415,331.846 171.248,331.951 171.143 C 332.182 170.912,330.985 165.985,330.583 165.517 C 330.403 165.306,330.298 165.306,330.300 165.517 M181.099 171.117 C 180.479 172.969,180.042 174.555,180.128 174.641 C 180.214 174.726,180.784 173.274,181.396 171.413 C 182.007 169.552,182.444 167.967,182.367 167.889 C 182.290 167.812,181.719 169.265,181.099 171.117 M344.374 169.635 C 343.567 170.457,342.907 171.268,342.907 171.437 C 342.907 171.606,343.637 171.004,344.530 170.098 C 345.422 169.193,346.082 168.382,345.997 168.297 C 345.911 168.211,345.181 168.813,344.374 169.635 M171.349 170.473 C 170.830 172.162,171.081 172.413,171.629 170.753 C 171.860 170.053,171.981 169.412,171.897 169.329 C 171.814 169.246,171.567 169.760,171.349 170.473 M244.658 169.877 C 244.798 170.359,245.070 170.911,245.263 171.103 C 245.496 171.337,245.528 171.162,245.359 170.578 C 245.219 170.096,244.948 169.545,244.755 169.352 C 244.521 169.119,244.489 169.294,244.658 169.877 M307.082 171.454 C 306.542 173.943,306.490 175.354,307.012 173.380 C 307.292 172.320,307.474 171.217,307.416 170.928 C 307.358 170.639,307.208 170.876,307.082 171.454 M235.369 172.654 C 235.531 173.217,235.843 173.966,236.062 174.317 C 236.497 175.014,236.317 174.095,235.689 172.417 C 235.261 171.274,235.024 171.450,235.369 172.654 M245.534 171.722 C 245.534 172.101,247.382 176.203,247.499 176.085 C 247.637 175.947,246.081 172.059,245.760 171.737 C 245.636 171.613,245.534 171.607,245.534 171.722 M314.930 173.949 C 314.695 175.223,314.570 176.333,314.652 176.415 C 314.734 176.497,314.997 175.525,315.236 174.256 C 315.476 172.986,315.601 171.877,315.514 171.790 C 315.428 171.703,315.165 172.675,314.930 173.949 M341.202 172.855 C 339.688 174.580,339.823 174.910,341.374 173.274 C 342.068 172.541,342.561 171.866,342.468 171.773 C 342.376 171.681,341.806 172.168,341.202 172.855 M170.093 173.946 C 169.783 174.856,169.590 175.661,169.664 175.735 C 169.738 175.809,170.052 175.125,170.362 174.215 C 170.672 173.305,170.866 172.500,170.791 172.426 C 170.717 172.352,170.403 173.036,170.093 173.946 M332.448 173.205 C 332.451 173.590,332.676 174.457,332.948 175.131 L 333.444 176.357 333.226 175.131 C 333.107 174.457,332.882 173.590,332.726 173.205 L 332.444 172.504 332.448 173.205 M279.854 176.385 C 279.631 177.460,279.516 178.407,279.598 178.489 C 279.680 178.571,279.944 177.759,280.185 176.684 C 280.514 175.214,280.749 174.779,281.135 174.927 C 281.422 175.037,281.554 174.971,281.434 174.777 C 280.881 173.883,280.238 174.538,279.854 176.385 M340.455 174.895 C 340.455 175.325,344.397 184.411,344.737 184.764 C 344.922 184.956,344.804 184.483,344.475 183.713 C 344.146 182.942,343.206 180.690,342.386 178.708 C 341.020 175.406,340.455 174.290,340.455 174.895 M179.593 175.371 C 179.504 175.528,179.337 176.130,179.222 176.708 C 179.014 177.753,179.016 177.752,179.542 176.579 C 180.000 175.557,180.042 174.578,179.593 175.371 M236.602 175.832 C 236.742 176.313,237.014 176.865,237.207 177.058 C 237.440 177.291,237.472 177.116,237.303 176.532 C 237.163 176.051,236.891 175.499,236.699 175.306 C 236.465 175.073,236.433 175.248,236.602 175.832 M281.972 175.372 C 281.985 175.717,284.596 177.681,285.814 178.263 L 286.690 178.681 285.814 177.965 C 283.959 176.448,281.962 175.100,281.972 175.372 M305.835 176.836 C 305.345 178.470,305.297 179.433,305.745 178.634 C 306.074 178.047,306.588 175.482,306.376 175.482 C 306.301 175.482,306.058 176.091,305.835 176.836 M169.177 176.272 C 169.177 176.321,169.022 176.902,168.833 177.562 C 168.640 178.233,168.629 178.618,168.808 178.435 C 169.204 178.030,169.681 176.182,169.390 176.182 C 169.273 176.182,169.177 176.223,169.177 176.272 M333.493 176.883 C 333.487 177.172,333.698 177.881,333.963 178.459 C 334.582 179.812,334.591 179.182,333.975 177.583 C 333.716 176.909,333.499 176.594,333.493 176.883 M313.862 178.661 C 313.613 179.632,313.488 180.505,313.583 180.600 C 313.678 180.695,313.950 179.968,314.186 178.984 C 314.422 178.000,314.547 177.128,314.465 177.045 C 314.382 176.963,314.111 177.690,313.862 178.661 M237.501 177.933 C 237.502 178.222,237.740 178.853,238.031 179.335 L 238.558 180.210 238.326 179.335 C 237.989 178.063,237.499 177.231,237.501 177.933 M248.508 178.809 C 248.831 179.580,249.965 182.338,251.027 184.939 C 252.874 189.458,253.556 190.951,253.580 190.522 C 253.607 190.025,248.672 178.149,248.276 177.758 C 248.081 177.566,248.185 178.039,248.508 178.809 M178.284 179.159 C 178.053 179.859,177.947 180.515,178.048 180.617 C 178.150 180.718,178.397 180.204,178.599 179.475 C 179.075 177.752,178.829 177.506,178.284 179.159 M287.707 179.421 L 288.723 180.265 288.145 181.963 C 287.358 184.271,287.459 184.849,288.266 182.662 C 289.178 180.190,289.127 179.782,287.828 179.140 L 286.690 178.577 287.707 179.421 M167.776 180.210 C 167.545 180.910,167.439 181.566,167.540 181.668 C 167.642 181.769,167.890 181.255,168.091 180.525 C 168.567 178.802,168.321 178.557,167.776 180.210 M278.809 180.736 C 278.573 181.720,278.461 182.606,278.560 182.705 C 278.660 182.804,278.917 182.063,279.132 181.059 C 279.642 178.681,279.368 178.406,278.809 180.736 M334.697 180.560 C 334.958 181.916,336.662 186.747,336.822 186.587 C 336.890 186.519,336.393 184.900,335.720 182.987 C 335.046 181.074,334.586 179.982,334.697 180.560 M238.720 181.173 C 238.851 181.607,239.102 182.115,239.278 182.304 C 239.455 182.492,239.421 182.137,239.205 181.516 C 238.761 180.243,238.351 179.954,238.720 181.173 M303.943 183.235 C 303.422 184.824,303.048 186.177,303.113 186.242 C 303.303 186.432,305.131 181.067,305.005 180.690 C 304.942 180.500,304.464 181.646,303.943 183.235 M176.883 183.012 C 176.652 183.712,176.546 184.368,176.647 184.470 C 176.749 184.571,176.996 184.057,177.198 183.327 C 177.674 181.605,177.428 181.359,176.883 183.012 M166.763 182.925 C 166.209 184.407,165.977 185.289,166.143 185.289 C 166.234 185.289,166.551 184.580,166.846 183.713 C 167.386 182.129,167.314 181.451,166.763 182.925 M312.514 183.888 C 312.297 184.742,312.175 185.497,312.242 185.564 C 312.456 185.777,313.197 183.200,313.050 182.758 C 312.972 182.524,312.731 183.033,312.514 183.888 M239.953 184.238 C 239.954 184.527,240.192 185.158,240.482 185.639 L 241.010 186.515 240.778 185.639 C 240.441 184.368,239.951 183.535,239.953 184.238 M277.583 185.639 C 277.450 186.245,277.420 186.819,277.517 186.915 C 277.613 187.012,277.800 186.595,277.933 185.989 C 278.066 185.384,278.096 184.810,278.000 184.713 C 277.904 184.617,277.716 185.034,277.583 185.639 M286.897 186.021 C 286.660 186.812,286.546 187.538,286.643 187.635 C 286.740 187.732,286.997 187.149,287.215 186.340 C 287.732 184.423,287.458 184.149,286.897 186.021 M175.832 185.989 C 175.587 186.580,175.469 187.145,175.569 187.245 C 175.669 187.345,175.927 186.920,176.143 186.301 C 176.653 184.839,176.409 184.595,175.832 185.989 M345.244 185.907 C 345.354 186.344,345.582 186.787,345.752 186.891 C 346.231 187.188,346.114 186.547,345.552 185.794 C 345.061 185.138,345.051 185.142,345.244 185.907 M165.324 186.690 C 165.079 187.280,164.961 187.845,165.061 187.945 C 165.161 188.045,165.420 187.620,165.635 187.001 C 166.145 185.540,165.901 185.296,165.324 186.690 M311.447 187.454 C 311.239 188.274,311.129 189.005,311.203 189.078 C 311.277 189.152,311.516 188.550,311.734 187.741 C 311.952 186.931,312.062 186.200,311.978 186.117 C 311.894 186.033,311.655 186.635,311.447 187.454 M241.182 187.391 C 241.310 187.872,241.562 188.503,241.740 188.792 C 241.966 189.157,241.994 189.050,241.831 188.441 C 241.702 187.960,241.450 187.329,241.272 187.040 C 241.046 186.675,241.019 186.782,241.182 187.391 M302.311 187.793 C 301.847 189.125,301.829 189.389,302.231 188.949 C 302.567 188.583,303.079 186.690,302.843 186.690 C 302.762 186.690,302.522 187.186,302.311 187.793 M337.154 187.915 C 337.369 189.012,337.555 189.359,337.796 189.113 C 337.875 189.032,337.716 188.494,337.444 187.916 L 336.949 186.865 337.154 187.915 M276.571 189.881 C 276.240 191.252,276.038 192.442,276.122 192.526 C 276.205 192.609,276.548 191.559,276.883 190.193 C 277.218 188.826,277.420 187.636,277.332 187.548 C 277.245 187.461,276.902 188.510,276.571 189.881 M346.071 187.586 C 346.065 187.790,346.291 188.263,346.574 188.637 C 346.857 189.011,347.093 189.150,347.099 188.946 C 347.105 188.742,346.879 188.269,346.596 187.895 C 346.313 187.521,346.077 187.382,346.071 187.586 M174.650 189.134 C 173.859 191.110,173.981 191.404,174.813 189.529 C 175.189 188.682,175.434 187.927,175.358 187.850 C 175.281 187.774,174.963 188.352,174.650 189.134 M285.814 189.667 C 285.569 190.545,285.448 191.344,285.546 191.442 C 285.644 191.540,285.909 190.886,286.135 189.988 C 286.671 187.863,286.396 187.589,285.814 189.667 M164.263 189.161 C 164.051 189.557,163.939 190.065,164.014 190.290 C 164.089 190.515,164.327 190.191,164.544 189.570 C 164.988 188.295,164.841 188.080,164.263 189.161 M242.427 190.748 C 242.630 191.502,242.935 192.263,243.103 192.440 C 243.271 192.616,243.241 192.143,243.037 191.389 C 242.834 190.635,242.530 189.873,242.362 189.697 C 242.194 189.521,242.223 189.994,242.427 190.748 M300.369 192.557 C 299.641 194.243,298.883 195.823,298.685 196.068 C 298.486 196.313,298.422 196.612,298.542 196.732 C 298.743 196.933,301.189 191.963,301.734 190.246 C 302.267 188.569,301.618 189.668,300.369 192.557 M310.333 190.718 C 310.102 191.418,309.996 192.074,310.097 192.175 C 310.199 192.277,310.447 191.763,310.648 191.033 C 310.849 190.304,310.955 189.648,310.884 189.576 C 310.812 189.504,310.564 190.018,310.333 190.718 M347.636 190.543 C 347.935 191.121,348.258 191.594,348.354 191.594 C 348.451 191.594,348.285 191.121,347.986 190.543 C 347.687 189.965,347.364 189.492,347.267 189.492 C 347.171 189.492,347.337 189.965,347.636 190.543 M338.354 190.893 C 338.540 191.541,338.856 192.236,339.058 192.438 C 339.288 192.668,339.273 192.352,339.016 191.586 C 338.474 189.967,337.923 189.391,338.354 190.893 M163.266 191.813 C 163.035 192.320,162.926 192.815,163.024 192.913 C 163.123 193.012,163.369 192.654,163.573 192.119 C 163.776 191.584,163.885 191.089,163.815 191.018 C 163.744 190.948,163.497 191.305,163.266 191.813 M253.790 191.594 C 253.916 192.075,254.159 192.619,254.330 192.802 C 254.830 193.337,254.677 192.570,254.089 191.594 L 253.561 190.718 253.790 191.594 M173.419 192.333 C 172.909 193.795,173.153 194.039,173.730 192.644 C 173.975 192.054,174.093 191.489,173.993 191.389 C 173.893 191.289,173.635 191.714,173.419 192.333 M284.566 193.896 C 284.254 194.970,284.081 195.932,284.183 196.033 C 284.284 196.135,284.545 195.532,284.761 194.694 C 284.978 193.856,285.236 192.894,285.333 192.557 C 285.431 192.220,285.426 191.944,285.322 191.944 C 285.218 191.944,284.878 192.823,284.566 193.896 M243.459 193.345 C 243.462 193.634,243.687 194.343,243.959 194.921 L 244.455 195.972 244.247 194.921 C 243.986 193.606,243.451 192.535,243.459 193.345 M275.563 193.520 C 275.030 195.351,274.972 196.694,275.495 195.101 C 275.778 194.237,275.955 193.370,275.888 193.175 C 275.821 192.979,275.675 193.135,275.563 193.520 M339.405 193.453 C 339.405 193.705,339.639 194.218,339.925 194.592 C 340.401 195.214,340.413 195.175,340.066 194.133 C 339.670 192.944,339.405 192.672,339.405 193.453 M254.799 193.958 C 256.194 197.634,256.895 199.263,257.026 199.133 C 257.209 198.949,254.995 193.345,254.739 193.345 C 254.644 193.345,254.671 193.621,254.799 193.958 M309.107 194.046 C 308.975 194.460,308.947 194.878,309.043 194.974 C 309.139 195.070,309.326 194.810,309.457 194.396 C 309.589 193.981,309.617 193.564,309.521 193.467 C 309.425 193.371,309.238 193.631,309.107 194.046 M349.953 194.472 C 350.672 195.815,352.775 199.021,354.026 200.681 C 354.687 201.559,355.568 202.735,355.985 203.294 C 357.585 205.443,358.669 206.742,358.669 206.510 C 358.669 206.377,357.369 204.553,355.779 202.457 C 354.190 200.360,352.199 197.531,351.354 196.170 C 349.893 193.816,349.064 192.811,349.953 194.472 M161.880 195.078 C 161.675 195.666,161.582 196.147,161.673 196.147 C 161.910 196.147,162.571 194.328,162.397 194.154 C 162.318 194.075,162.085 194.491,161.880 195.078 M172.394 194.991 C 172.193 195.530,171.688 196.839,171.272 197.898 C 170.856 198.958,170.634 199.708,170.777 199.566 C 171.163 199.182,173.074 194.323,172.905 194.154 C 172.826 194.075,172.596 194.451,172.394 194.991 M341.308 197.567 C 341.759 198.541,342.234 199.444,342.364 199.574 C 342.667 199.877,342.034 198.207,341.330 196.845 C 340.440 195.124,340.423 195.658,341.308 197.567 M244.823 197.046 C 245.711 199.832,247.788 205.219,247.921 205.085 C 248.105 204.901,245.204 196.809,244.789 196.346 C 244.627 196.166,244.643 196.481,244.823 197.046 M307.414 198.307 C 306.901 199.496,306.537 200.524,306.605 200.592 C 306.672 200.660,307.159 199.754,307.686 198.579 C 308.213 197.405,308.578 196.377,308.496 196.295 C 308.414 196.213,307.927 197.118,307.414 198.307 M160.771 197.548 C 160.526 198.138,160.408 198.703,160.508 198.803 C 160.608 198.903,160.866 198.479,161.082 197.860 C 161.592 196.398,161.348 196.154,160.771 197.548 M283.388 198.116 C 283.164 199.006,283.052 199.806,283.140 199.894 C 283.313 200.067,283.535 199.400,283.890 197.636 C 284.238 195.906,283.852 196.276,283.388 198.116 M297.483 198.511 C 297.363 198.849,297.199 199.282,297.118 199.475 C 297.037 199.667,297.219 199.519,297.522 199.145 C 298.073 198.466,298.239 197.898,297.887 197.898 C 297.785 197.898,297.603 198.174,297.483 198.511 M274.106 199.149 C 273.977 199.663,273.950 200.161,274.046 200.258 C 274.143 200.354,274.327 200.013,274.456 199.500 C 274.585 198.986,274.611 198.488,274.515 198.391 C 274.419 198.295,274.234 198.636,274.106 199.149 M159.528 200.383 C 159.220 200.979,159.030 201.528,159.106 201.604 C 159.182 201.680,159.506 201.193,159.826 200.521 C 160.547 199.010,160.297 198.895,159.528 200.383 M257.482 200.613 C 257.879 201.802,258.144 202.074,258.144 201.293 C 258.144 201.041,257.909 200.528,257.623 200.155 C 257.147 199.532,257.135 199.572,257.482 200.613 M169.916 201.090 C 169.701 201.709,169.585 202.276,169.660 202.351 C 169.735 202.426,169.973 201.981,170.189 201.362 C 170.405 200.743,170.520 200.175,170.445 200.100 C 170.370 200.026,170.132 200.471,169.916 201.090 M296.420 200.438 C 296.233 200.679,295.995 201.112,295.890 201.401 C 295.786 201.690,294.497 203.723,293.026 205.918 C 291.556 208.113,290.411 209.968,290.483 210.039 C 290.628 210.184,294.624 204.252,296.125 201.664 C 297.027 200.107,297.186 199.448,296.420 200.438 M342.792 200.618 C 342.902 201.055,343.130 201.498,343.300 201.602 C 343.779 201.899,343.662 201.258,343.100 200.505 C 342.610 199.849,342.599 199.853,342.792 200.618 M282.158 202.474 C 281.828 203.652,281.626 204.685,281.711 204.770 C 281.795 204.854,282.134 203.959,282.465 202.780 C 282.796 201.602,282.997 200.569,282.913 200.484 C 282.829 200.400,282.489 201.295,282.158 202.474 M305.986 201.351 C 305.538 202.075,305.110 203.525,305.396 203.348 C 305.569 203.241,305.875 202.681,306.077 202.102 C 306.427 201.098,306.380 200.712,305.986 201.351 M158.161 203.419 C 157.112 205.586,156.548 207.005,156.734 207.005 C 156.959 207.005,159.065 202.380,158.910 202.226 C 158.847 202.162,158.509 202.699,158.161 203.419 M272.855 203.678 C 272.609 204.556,272.488 205.354,272.586 205.453 C 272.684 205.551,272.950 204.897,273.176 203.999 C 273.711 201.874,273.437 201.599,272.855 203.678 M168.944 203.415 C 168.827 203.752,168.438 204.718,168.079 205.561 C 167.294 207.402,167.248 207.910,167.989 206.542 C 168.660 205.306,169.554 202.802,169.325 202.802 C 169.232 202.802,169.060 203.078,168.944 203.415 M258.672 203.503 C 259.087 204.917,259.587 205.584,259.329 204.378 C 259.205 203.800,258.949 203.170,258.760 202.977 C 258.533 202.747,258.503 202.927,258.672 203.503 M304.488 204.466 C 304.368 204.803,304.204 205.236,304.123 205.429 C 304.042 205.622,304.224 205.473,304.527 205.099 C 305.078 204.420,305.244 203.853,304.893 203.853 C 304.790 203.853,304.608 204.129,304.488 204.466 M345.244 205.172 C 345.354 205.608,345.582 206.051,345.752 206.156 C 346.231 206.452,346.114 205.811,345.552 205.058 C 345.061 204.402,345.051 204.406,345.244 205.172 M280.981 206.557 C 280.381 208.560,280.491 209.224,281.124 207.419 C 281.415 206.587,281.597 205.737,281.528 205.530 C 281.459 205.322,281.213 205.785,280.981 206.557 M248.172 206.130 C 249.481 209.960,249.834 210.878,249.952 210.760 C 250.131 210.582,248.848 206.854,248.331 206.049 C 247.971 205.488,247.956 205.496,248.172 206.130 M271.804 207.356 C 271.586 208.165,271.476 208.896,271.560 208.980 C 271.644 209.063,271.882 208.462,272.090 207.642 C 272.298 206.823,272.408 206.092,272.334 206.018 C 272.261 205.944,272.022 206.546,271.804 207.356 M302.909 207.443 C 302.478 208.262,301.963 209.196,301.763 209.519 C 300.586 211.427,299.543 213.310,299.664 213.310 C 299.887 213.310,302.171 209.643,303.146 207.717 C 303.638 206.748,303.962 205.954,303.866 205.954 C 303.770 205.954,303.340 206.624,302.909 207.443 M256.638 208.289 C 255.136 209.170,253.987 209.970,254.085 210.069 C 254.263 210.247,259.545 207.090,259.545 206.805 C 259.545 206.583,259.587 206.561,256.638 208.289 M346.410 206.904 C 346.410 208.007,352.764 216.455,356.654 220.525 C 360.439 224.483,359.888 224.445,362.550 220.928 C 363.753 219.339,365.342 217.372,366.081 216.558 C 367.641 214.840,367.710 214.523,366.637 214.004 C 365.890 213.641,365.883 213.649,366.515 214.156 C 367.165 214.677,367.160 214.716,366.340 215.714 C 363.867 218.726,361.193 222.082,360.685 222.813 L 360.107 223.643 357.289 220.738 C 353.838 217.180,351.413 214.152,348.575 209.859 C 347.384 208.057,346.410 206.727,346.410 206.904 M359.963 207.881 C 361.339 209.631,364.558 212.795,364.752 212.588 C 364.831 212.504,363.538 211.095,361.879 209.457 C 360.219 207.820,359.357 207.110,359.963 207.881 M156.570 208.299 C 156.572 208.454,157.241 208.962,158.059 209.428 C 158.876 209.893,159.360 210.051,159.134 209.778 C 158.577 209.106,156.567 207.946,156.570 208.299 M166.414 209.545 C 166.066 210.586,166.078 210.625,166.555 210.003 C 166.841 209.629,167.075 209.117,167.075 208.865 C 167.075 208.084,166.810 208.356,166.414 209.545 M279.860 210.508 C 279.344 212.425,279.617 212.698,280.178 210.826 C 280.415 210.036,280.530 209.310,280.433 209.213 C 280.336 209.115,280.078 209.698,279.860 210.508 M159.749 210.300 C 160.436 210.969,164.356 213.660,164.642 213.660 C 165.036 213.660,166.173 211.240,165.905 210.972 C 165.816 210.884,165.559 211.373,165.332 212.061 C 164.815 213.626,164.852 213.629,162.247 211.734 C 161.056 210.867,159.974 210.158,159.842 210.158 C 159.711 210.158,159.669 210.222,159.749 210.300 M252.014 210.860 C 251.436 211.244,250.766 211.484,250.525 211.394 C 250.020 211.205,249.927 211.768,250.414 212.069 C 250.674 212.230,252.855 211.010,253.552 210.313 C 253.990 209.875,252.929 210.252,252.014 210.860 M270.603 211.409 C 270.474 211.922,270.436 212.409,270.519 212.492 C 270.601 212.575,270.774 212.222,270.903 211.709 C 271.032 211.195,271.070 210.708,270.987 210.625 C 270.905 210.543,270.732 210.895,270.603 211.409 M289.048 211.471 C 287.912 213.112,287.705 213.547,288.287 213.074 C 288.842 212.622,290.160 210.508,289.886 210.508 C 289.792 210.508,289.415 210.941,289.048 211.471 M269.515 214.874 C 269.197 215.969,269.007 216.935,269.094 217.021 C 269.180 217.107,269.506 216.278,269.819 215.178 C 270.132 214.078,270.322 213.112,270.241 213.031 C 270.160 212.951,269.834 213.780,269.515 214.874 M278.850 214.045 C 278.635 214.661,278.474 215.418,278.493 215.727 C 278.513 216.035,278.747 215.589,279.015 214.736 C 279.575 212.949,279.435 212.364,278.850 214.045 M286.331 214.929 C 285.798 215.627,284.519 217.042,283.487 218.074 C 282.455 219.106,281.611 220.111,281.611 220.309 C 281.611 220.707,285.696 216.353,286.870 214.704 C 287.923 213.225,287.493 213.405,286.331 214.929 M298.408 214.769 C 297.887 215.777,295.441 219.101,294.262 220.403 C 293.782 220.933,293.512 221.366,293.661 221.366 C 294.226 221.366,299.340 214.460,299.016 214.136 C 298.914 214.034,298.641 214.319,298.408 214.769 M268.553 217.753 C 268.266 218.238,267.884 220.315,268.082 220.315 C 268.313 220.315,269.032 217.777,268.852 217.597 C 268.780 217.525,268.646 217.595,268.553 217.753 M277.485 219.085 C 277.277 220.046,277.165 220.889,277.235 220.959 C 277.445 221.170,278.161 218.194,278.006 217.750 C 277.928 217.523,277.693 218.124,277.485 219.085 M267.597 220.695 C 267.595 220.775,267.356 221.624,267.065 222.581 C 266.775 223.538,266.683 224.168,266.861 223.982 C 267.266 223.559,267.991 220.939,267.766 220.714 C 267.675 220.623,267.599 220.614,267.597 220.695 M282.702 221.191 C 283.493 222.375,285.114 224.208,285.113 223.918 C 285.112 223.766,284.465 222.933,283.673 222.067 C 282.882 221.200,282.445 220.806,282.702 221.191 M276.384 223.144 C 275.874 225.522,276.149 225.797,276.708 223.468 C 276.944 222.484,277.056 221.597,276.956 221.498 C 276.857 221.399,276.600 222.140,276.384 223.144 M291.068 224.343 C 288.398 227.428,288.476 227.408,286.745 225.487 C 285.887 224.536,285.654 224.375,286.102 225.044 C 286.488 225.622,287.163 226.475,287.602 226.939 L 288.399 227.784 290.619 225.363 C 292.579 223.225,293.747 221.716,293.443 221.716 C 293.388 221.716,292.319 222.898,291.068 224.343 M321.367 224.515 C 321.236 224.927,320.654 225.806,320.073 226.468 C 318.907 227.796,318.975 228.134,320.156 226.883 C 321.040 225.947,322.013 224.173,321.774 223.934 C 321.681 223.841,321.498 224.103,321.367 224.515 M202.486 224.805 C 201.279 227.060,195.091 227.546,185.392 226.148 C 181.284 225.556,181.260 225.573,181.940 228.580 C 182.454 230.853,182.475 230.887,182.299 229.155 C 182.196 228.141,182.019 227.071,181.906 226.777 C 181.686 226.203,182.644 226.232,189.308 226.999 C 193.148 227.441,198.420 227.402,200.030 226.920 C 201.359 226.522,203.466 224.716,203.068 224.317 C 202.953 224.202,202.691 224.422,202.486 224.805 M265.526 226.974 C 264.619 229.462,264.668 230.033,265.849 230.733 L 266.725 231.252 265.896 230.511 C 265.002 229.711,265.013 229.355,266.009 226.663 C 266.322 225.820,266.515 225.067,266.438 224.991 C 266.362 224.914,265.951 225.807,265.526 226.974 M275.196 227.539 C 274.872 228.696,274.618 229.869,274.633 230.146 C 274.647 230.422,274.962 229.623,275.332 228.371 C 275.702 227.119,275.955 225.946,275.896 225.764 C 275.836 225.583,275.521 226.381,275.196 227.539 M302.629 227.233 C 302.630 227.377,303.430 227.512,304.406 227.532 C 305.485 227.555,305.999 227.454,305.718 227.275 C 305.141 226.909,302.626 226.875,302.629 227.233 M314.090 227.924 C 314.712 228.001,315.815 228.002,316.542 227.926 C 317.269 227.851,316.760 227.787,315.412 227.786 C 314.063 227.784,313.468 227.846,314.090 227.924 M303.184 229.428 C 303.531 232.196,304.039 233.778,303.810 231.379 C 303.702 230.240,303.472 228.979,303.299 228.577 C 303.083 228.072,303.047 228.335,303.184 229.428 M328.936 230.560 C 328.588 231.602,328.600 231.641,329.077 231.019 C 329.363 230.645,329.597 230.133,329.597 229.881 C 329.597 229.099,329.332 229.372,328.936 230.560 M274.162 231.349 C 273.629 233.180,273.571 234.523,274.094 232.930 C 274.377 232.066,274.554 231.199,274.487 231.003 C 274.420 230.808,274.274 230.963,274.162 231.349 M182.523 232.049 C 182.403 236.140,183.338 238.194,185.289 238.124 L 186.515 238.079 185.114 237.866 L 183.713 237.653 183.133 234.326 C 182.815 232.496,182.540 231.471,182.523 232.049 M267.371 231.436 C 267.961 232.390,272.936 235.435,273.304 235.067 C 273.592 234.779,273.499 234.676,272.952 234.676 C 272.542 234.676,271.526 234.162,270.692 233.534 C 268.645 231.992,267.119 231.027,267.371 231.436 M327.554 233.158 C 326.499 234.767,326.734 235.001,327.817 233.421 C 328.274 232.754,328.583 232.144,328.505 232.066 C 328.427 231.988,327.999 232.479,327.554 233.158 M210.540 233.307 C 210.103 233.898,209.810 234.445,209.889 234.524 C 209.968 234.603,210.390 234.184,210.826 233.593 C 211.263 233.003,211.556 232.455,211.477 232.376 C 211.398 232.297,210.976 232.716,210.540 233.307 M304.280 235.552 C 304.382 236.708,304.498 237.692,304.538 237.740 C 304.823 238.083,321.470 237.932,322.067 237.580 C 322.632 237.247,322.362 237.214,320.665 237.410 C 318.435 237.668,316.754 237.690,309.426 237.560 L 304.842 237.478 304.468 235.464 L 304.094 233.450 304.280 235.552 M208.929 235.031 C 208.808 235.227,208.074 235.711,207.298 236.106 C 206.522 236.502,205.972 236.912,206.077 237.017 C 206.307 237.247,208.503 235.929,209.110 235.197 C 209.348 234.911,209.454 234.676,209.346 234.676 C 209.237 234.676,209.049 234.836,208.929 235.031 M324.518 235.981 C 323.377 236.784,323.072 237.126,323.643 236.960 C 324.124 236.821,324.988 236.250,325.562 235.691 C 326.894 234.396,326.689 234.453,324.518 235.981 M203.923 237.473 C 203.287 237.624,202.676 237.838,202.566 237.948 C 202.239 238.274,205.048 237.766,205.412 237.432 C 205.799 237.077,205.568 237.084,203.923 237.473 " stroke="none" fill="#9c9c9c" fill-rule="evenodd"></path><path id="path4" d="M95.550 66.137 C 95.222 66.268,97.586 66.378,100.804 66.382 C 104.022 66.386,106.182 66.287,105.604 66.161 C 104.198 65.855,96.304 65.836,95.550 66.137 M92.294 66.789 C 90.707 67.148,86.981 68.713,86.165 69.363 C 85.087 70.223,85.732 70.022,88.767 68.551 C 89.924 67.991,91.392 67.447,92.029 67.344 C 92.666 67.241,93.271 67.020,93.374 66.853 C 93.570 66.536,93.447 66.529,92.294 66.789 M107.881 66.692 C 107.881 66.801,108.569 67.063,109.409 67.275 C 113.371 68.273,116.443 72.895,117.016 78.721 C 118.075 89.483,119.943 95.516,124.255 102.099 C 125.452 103.925,129.924 108.722,130.186 108.459 C 130.269 108.376,129.460 107.478,128.387 106.464 C 125.138 103.391,121.737 97.709,119.802 92.119 C 118.924 89.584,118.098 85.171,117.868 81.786 C 117.278 73.093,114.197 67.855,109.019 66.739 C 108.393 66.605,107.881 66.583,107.881 66.692 M83.533 70.680 C 81.637 71.755,79.869 73.024,79.864 73.313 C 79.862 73.469,80.057 73.482,80.298 73.343 C 81.211 72.815,84.764 70.296,84.764 70.177 C 84.764 69.994,84.689 70.025,83.533 70.680 M77.012 75.312 C 75.978 76.297,75.311 77.053,75.531 76.992 C 76.095 76.837,79.246 73.876,79.053 73.682 C 78.965 73.594,78.047 74.328,77.012 75.312 M73.129 79.247 C 71.126 81.604,68.904 84.782,69.112 84.990 C 69.201 85.079,69.998 84.060,70.885 82.727 C 71.772 81.393,72.743 80.098,73.043 79.849 C 73.661 79.336,75.086 77.408,74.847 77.408 C 74.761 77.408,73.988 78.236,73.129 79.247 M66.392 89.589 C 63.388 95.641,60.782 104.694,59.413 113.835 C 58.791 117.988,58.696 119.099,57.959 130.823 C 57.669 135.447,57.361 139.549,57.275 139.939 C 57.189 140.330,56.799 143.167,56.408 146.244 C 56.018 149.321,55.477 153.415,55.208 155.342 C 54.938 157.268,54.533 160.184,54.307 161.821 C 54.081 163.459,53.738 165.665,53.545 166.725 C 53.352 167.785,52.971 173.222,52.700 178.809 C 52.000 193.195,50.991 205.307,50.047 210.644 C 49.241 215.205,48.805 228.436,49.330 232.399 C 49.458 233.363,49.583 230.368,49.609 225.744 C 49.636 221.121,49.829 215.998,50.039 214.361 C 51.801 200.645,52.538 192.066,53.241 177.065 C 53.440 172.830,53.769 168.338,53.971 167.082 C 54.334 164.841,54.582 163.086,56.030 152.539 C 57.676 140.551,58.122 136.432,58.494 129.772 C 59.355 114.349,60.818 105.413,63.910 96.673 C 64.532 94.915,64.558 94.853,66.399 90.803 C 67.899 87.502,67.894 86.563,66.392 89.589 M131.003 108.816 C 131.009 109.251,133.229 110.606,135.222 111.392 C 137.685 112.363,137.825 112.235,135.542 111.099 C 134.478 110.570,133.020 109.774,132.302 109.330 C 131.585 108.887,131.000 108.655,131.003 108.816 M138.152 112.350 C 138.279 112.476,140.183 112.679,142.383 112.799 C 151.036 113.272,153.231 117.093,153.237 131.699 C 153.240 139.700,153.296 139.150,150.428 159.545 C 149.588 165.517,148.335 175.131,147.643 180.911 C 146.950 186.690,146.068 193.862,145.682 196.848 C 145.297 199.834,144.756 204.089,144.482 206.305 C 142.955 218.635,142.785 219.912,141.832 226.270 C 141.507 228.441,140.474 233.808,139.575 238.004 C 137.451 247.909,132.719 250.031,118.836 247.301 C 110.304 245.624,106.880 245.991,106.323 248.643 C 106.101 249.701,105.060 269.961,105.133 271.804 C 105.243 274.565,105.713 268.356,106.114 258.844 C 106.647 246.223,106.220 247.074,111.955 247.206 C 114.241 247.258,117.452 247.564,119.089 247.885 C 123.433 248.738,132.851 248.743,134.406 247.893 C 137.120 246.410,138.850 243.083,140.253 236.648 C 142.329 227.124,142.790 224.086,145.357 202.977 C 146.317 195.079,147.337 186.804,147.622 184.588 C 147.907 182.373,148.467 177.881,148.867 174.606 C 149.266 171.331,150.139 164.790,150.806 160.070 C 151.473 155.350,152.260 149.597,152.555 147.285 C 152.850 144.974,153.271 141.821,153.490 140.280 C 155.376 127.039,152.500 114.960,146.995 113.002 C 145.544 112.486,137.711 111.908,138.152 112.350 M292.200 151.664 C 292.200 152.338,292.272 152.614,292.361 152.277 C 292.449 151.940,292.449 151.388,292.361 151.051 C 292.272 150.714,292.200 150.989,292.200 151.664 M50.011 235.769 C 50.391 236.371,51.234 237.185,51.884 237.580 C 52.942 238.222,52.910 238.161,51.576 236.984 C 50.757 236.263,50.088 235.448,50.088 235.174 C 50.088 234.900,49.914 234.676,49.703 234.676 C 49.489 234.676,49.626 235.162,50.011 235.769 M53.288 238.344 C 53.940 238.996,58.737 240.337,62.045 240.792 C 68.423 241.670,68.526 241.680,67.941 241.342 C 67.647 241.172,66.071 240.872,64.439 240.676 C 60.885 240.249,57.059 239.428,55.247 238.705 C 53.967 238.195,52.952 238.007,53.288 238.344 M190.961 238.440 C 193.022 238.502,196.489 238.502,198.667 238.440 C 200.845 238.379,199.159 238.328,194.921 238.328 C 190.683 238.328,188.901 238.378,190.961 238.440 M70.578 242.223 C 71.734 242.483,74.162 243.007,75.974 243.387 C 79.503 244.127,80.925 244.900,81.255 246.258 C 81.588 247.627,81.004 260.861,80.385 265.978 C 79.478 273.471,79.467 289.957,80.368 292.384 C 81.152 294.497,83.158 296.761,84.734 297.310 C 86.233 297.833,86.085 297.598,84.230 296.511 C 79.564 293.777,78.710 284.563,81.127 263.047 C 81.441 260.254,81.717 255.198,81.742 251.812 L 81.786 245.656 80.736 244.735 C 79.369 243.538,78.693 243.304,74.060 242.420 C 69.821 241.612,67.205 241.464,70.578 242.223 M104.443 278.069 C 103.993 283.325,103.246 287.206,102.223 289.609 C 101.487 291.335,101.447 291.540,101.899 291.260 C 102.930 290.623,104.677 282.762,104.958 277.496 C 105.266 271.712,104.958 272.055,104.443 278.069 M100.492 292.874 C 99.756 293.975,97.125 296.410,95.982 297.047 C 95.699 297.206,95.560 297.428,95.675 297.543 C 95.789 297.657,96.557 297.232,97.383 296.598 C 99.122 295.263,101.789 292.215,101.484 291.910 C 101.370 291.796,100.923 292.229,100.492 292.874 M86.974 298.194 C 87.984 298.583,93.482 298.588,94.462 298.201 C 94.955 298.007,93.613 297.898,90.718 297.898 C 87.895 297.898,86.494 298.009,86.974 298.194 " stroke="none" fill="#f498c1" fill-rule="evenodd"></path></g></svg>